HIERARCHY
ROOT Hips
{
    OFFSET 0.000000 0.000000 0.000000
    CHANNELS 6 Xposition Yposition Zposition Zrotation Xrotation Yrotation
    JOINT Spine
    {
        OFFSET -0.000000 7.236184 0.000000
        CHANNELS 3 Zrotation Xrotation Yrotation
        JOINT Spine1
        {
            OFFSET -0.000000 20.420147 0.000000
            CHANNELS 3 Zrotation Xrotation Yrotation
            JOINT Neck
            {
                OFFSET -0.000000 20.336288 1.848754
                CHANNELS 3 Zrotation Xrotation Yrotation
                JOINT Head
                {
                    OFFSET -0.000000 12.354461 -1.764923
                    CHANNELS 3 Zrotation Xrotation Yrotation
                    End Site
                    {
                        OFFSET -0.000000 22.061537 0.000000
                    }
                }
            }
            JOINT LeftShoulder
            {
                OFFSET 3.573296 18.396038 -0.314103
                CHANNELS 3 Zrotation Xrotation Yrotation
                JOINT LeftArm
                {
                    OFFSET 10.880760 0.000000 0.000000
                    CHANNELS 3 Zrotation Xrotation Yrotation
                    JOINT LeftForeArm
                    {
                        OFFSET 27.185530 0.000000 0.000000
                        CHANNELS 3 Zrotation Xrotation Yrotation
                        JOINT LeftHand
                        {
                            OFFSET 27.825975 0.000000 0.000000
                            CHANNELS 3 Zrotation Xrotation Yrotation
                            End Site
                            {
                                OFFSET 13.236923 0.000000 0.000000
                            }
                        }
                    }
                }
            }
            JOINT RightShoulder
            {
                OFFSET -3.474926 18.396038 -0.314103
                CHANNELS 3 Zrotation Xrotation Yrotation
                JOINT RightArm
                {
                    OFFSET -10.880760 0.000000 0.000000
                    CHANNELS 3 Zrotation Xrotation Yrotation
                    JOINT RightForeArm
                    {
                        OFFSET -27.185530 0.000000 0.000000
                        CHANNELS 3 Zrotation Xrotation Yrotation
                        JOINT RightHand
                        {
                            OFFSET -27.825975 0.000000 0.000000
                            CHANNELS 3 Zrotation Xrotation Yrotation
                            End Site
                            {
                                OFFSET -13.236923 0.000000 0.000000
                            }
                        }
                    }
                }
            }
        }
    }
    JOINT LeftUpLeg
    {
        OFFSET 8.824615 0.000000 0.000000
        CHANNELS 3 Zrotation Xrotation Yrotation
        JOINT LeftLeg
        {
            OFFSET -0.000000 -35.111282 0.000000
            CHANNELS 3 Zrotation Xrotation Yrotation
            JOINT LeftFoot
            {
                OFFSET -0.000000 -42.324711 0.000000
                CHANNELS 3 Zrotation Xrotation Yrotation
                JOINT LeftToeBase
                {
                    OFFSET -0.000000 -5.735999 13.236923
                    CHANNELS 3 Zrotation Xrotation Yrotation
                    End Site
                    {
                        OFFSET -0.000000 0.000000 3.529846
                    }
                }
            }
        }
    }
    JOINT RightUpLeg
    {
        OFFSET -8.824615 0.000000 0.000000
        CHANNELS 3 Zrotation Xrotation Yrotation
        JOINT RightLeg
        {
            OFFSET -0.000000 -35.111282 0.000000
            CHANNELS 3 Zrotation Xrotation Yrotation
            JOINT RightFoot
            {
                OFFSET -0.000000 -42.324711 0.000000
                CHANNELS 3 Zrotation Xrotation Yrotation
                JOINT RightToeBase
                {
                    OFFSET -0.000000 -5.735999 13.236923
                    CHANNELS 3 Zrotation Xrotation Yrotation
                    End Site
                    {
                        OFFSET -0.000000 0.000000 3.529846
                    }
                }
            }
        }
    }
}
MOTION
Frames:    10
Frame Time:    0.008333
-4.720057    82.638313    100.751541    -0.346063    -12.558693    -177.735214    -1.778665    -20.841673    -0.913655    0.364011    11.201290    -0.622286    3.011130    1.832163    -0.875754    2.667991    -6.096777    -0.790486    2.379678    17.810125    -3.767576    -45.151932    46.402039    -39.982460    2.532990    -3.849138    -20.030590    16.620213    -3.337140    0.449118    3.353319    19.669605    -3.408920    45.568981    43.253208    32.592911    -3.401188    -8.853852    13.662338    -13.784692    -8.120300    -2.763479    10.110807    -12.785921    1.117135    -1.337574    6.982074    -0.656747    -10.726408    -5.447477    -9.454165    0.194896    -0.387105    -0.216187    -11.088531    -9.523505    0.004009    2.680674    3.107749    2.129167    8.165761    -4.099872    -9.624935    -1.122252    -0.805279    1.215147    
-4.716962    82.640984    100.740669    -0.336478    -12.616458    -177.723495    -1.781057    -20.826052    -0.915010    0.375821    11.169483    -0.624503    3.009890    1.767722    -0.870198    2.675905    -6.177907    -0.782890    2.381970    17.820684    -3.691070    -45.596497    46.231213    -39.389454    2.505466    -4.003394    -19.960764    16.859201    -3.483238    0.541873    3.334480    19.664351    -3.441884    45.902424    43.005283    32.037636    -3.381470    -8.928393    13.621300    -13.803450    -8.193823    -2.799209    10.126528    -12.820295    1.071533    -1.355682    6.947721    -0.595676    -10.724010    -5.437568    -9.465511    0.189955    -0.379898    -0.210703    -11.073870    -9.567193    0.038301    2.670096    3.100449    2.077981    8.125562    -4.104318    -9.627632    -1.130655    -0.788877    1.224218    
-4.713922    82.643547    100.729774    -0.327102    -12.673057    -177.712234    -1.783382    -20.810890    -0.916110    0.387729    11.138772    -0.626490    3.008060    1.703313    -0.865137    2.683758    -6.257447    -0.775790    2.383417    17.832060    -3.616070    -46.026112    46.059669    -38.811623    2.478463    -4.154407    -19.892397    17.101215    -3.625058    0.637613    3.316044    19.659639    -3.475752    46.223377    42.760063    31.497108    -3.364996    -9.002088    13.584753    -13.820192    -8.265992    -2.834746    10.141846    -12.853827    1.028660    -1.372970    6.914248    -0.537498    -10.721580    -5.428094    -9.476480    0.184960    -0.372841    -0.205160    -11.059608    -9.609622    0.070099    2.659878    3.092945    2.030254    8.087426    -4.108768    -9.630604    -1.138660    -0.773420    1.232858    
-4.710875    82.646004    100.718521    -0.317761    -12.729053    -177.701569    -1.784743    -20.795774    -0.916699    0.398282    11.108729    -0.627944    3.007204    1.637467    -0.860453    2.690297    -6.336690    -0.769480    2.384907    17.845650    -3.541409    -46.445984    45.886250    -38.241737    2.449639    -4.302728    -19.824953    17.354010    -3.763177    0.738751    3.298951    19.655794    -3.511726    46.536671    42.514671    30.962992    -3.351867    -9.075636    13.556091    -13.835640    -8.337393    -2.870473    10.157047    -12.886518    0.988342    -1.389502    6.881152    -0.481829    -10.718824    -5.419103    -9.486904    0.179934    -0.365160    -0.199583    -11.045586    -9.650893    0.098643    2.650123    3.084869    1.987190    8.051733    -4.113365    -9.634216    -1.146102    -0.759345    1.240892    
-4.707836    82.648300    100.706779    -0.308613    -12.784175    -177.691727    -1.785321    -20.780701    -0.916563    0.407864    11.079711    -0.628682    3.006664    1.569568    -0.856533    2.695849    -6.415740    -0.764187    2.385770    17.861923    -3.467555    -46.853497    45.713013    -37.682327    2.417501    -4.446535    -19.758722    17.618608    -3.895926    0.845109    3.283405    19.652773    -3.550627    46.841938    42.270969    30.436388    -3.342688    -9.148800    13.538044    -13.850821    -8.407622    -2.906271    10.171928    -12.917994    0.951351    -1.405124    6.848495    -0.428557    -10.715830    -5.410501    -9.497542    0.174744    -0.357659    -0.193823    -11.032014    -9.690555    0.122824    2.640969    3.076054    1.950486    8.019795    -4.118214    -9.638713    -1.152729    -0.747013    1.248045    
-4.704780    82.650391    100.694489    -0.299638    -12.838165    -177.682800    -1.784468    -20.765654    -0.915420    0.415176    11.051883    -0.628630    3.007889    1.499280    -0.853145    2.699231    -6.494550    -0.760285    2.386591    17.881752    -3.394917    -47.246674    45.540546    -37.135983    2.380440    -4.583445    -19.693039    17.891983    -4.021485    0.954899    3.270676    19.650921    -3.592535    47.137657    42.030560    29.918711    -3.337087    -9.221547    13.532415    -13.867636    -8.476597    -2.942098    10.186471    -12.948318    0.920056    -1.419328    6.817039    -0.380443    -10.712564    -5.402764    -9.508017    0.169154    -0.349055    -0.187620    -11.018963    -9.728321    0.142178    2.632572    3.066484    1.921190    7.992118    -4.123399    -9.644538    -1.158461    -0.736646    1.254233    
-4.701687    82.652260    100.681564    -0.290828    -12.891118    -177.674805    -1.782519    -20.751049    -0.913411    0.421030    11.025898    -0.627633    3.010013    1.426113    -0.850503    2.700795    -6.573957    -0.757687    2.386564    17.904898    -3.323742    -47.624825    45.369675    -36.602882    2.337460    -4.711829    -19.626925    18.167988    -4.138841    1.065313    3.260136    19.650135    -3.637743    47.424149    41.794605    29.410128    -3.334825    -9.293968    13.539593    -13.888023    -8.544358    -2.978041    10.200722    -12.977177    0.893130    -1.432374    6.786057    -0.334949    -10.709116    -5.395400    -9.519439    0.163153    -0.339784    -0.180961    -11.006398    -9.764213    0.156476    2.624828    3.056148    1.899515    7.968718    -4.128965    -9.651661    -1.163368    -0.728123    1.259531    
-4.698569    82.653923    100.668106    -0.282210    -12.942839    -177.667709    -1.779009    -20.736593    -0.910366    0.424392    11.001398    -0.625729    3.013686    1.350833    -0.848508    2.700536    -6.654689    -0.756302    2.386168    17.931410    -3.254750    -47.980785    45.207417    -36.088482    2.290059    -4.833178    -19.560951    18.436945    -4.249708    1.173705    3.252871    19.650539    -3.685538    47.699337    41.565674    28.913036    -3.335288    -9.366052    13.559189    -13.913984    -8.610937    -3.014000    10.214455    -13.004647    0.870462    -1.443866    6.755877    -0.291477    -10.705853    -5.388351    -9.532430    0.156614    -0.329686    -0.173705    -10.994390    -9.798132    0.165682    2.617823    3.045115    1.885561    7.949561    -4.134900    -9.660154    -1.167505    -0.721664    1.263999    
-4.695374    82.655426    100.653801    -0.273565    -12.994738    -177.661331    -1.774191    -20.722233    -0.906320    0.426239    10.977999    -0.622901    3.017971    1.271216    -0.847184    2.698956    -6.738932    -0.756037    2.384332    17.961876    -3.186789    -48.336678    45.035202    -35.574249    2.233228    -4.939001    -19.486750    18.695024    -4.348293    1.270378    3.247917    19.652115    -3.736742    47.969280    41.340202    28.417048    -3.338044    -9.439794    13.590474    -13.947758    -8.678220    -3.051030    10.228063    -13.031294    0.849483    -1.454466    6.725075    -0.245851    -10.702736    -5.380961    -9.548309    0.149201    -0.318435    -0.165479    -10.982766    -9.831100    0.170057    2.611488    3.033161    1.879139    7.933601    -4.141324    -9.670573    -1.171155    -0.716652    1.267941    
-4.692206    82.656822    100.639046    -0.265199    -13.045803    -177.655685    -1.768049    -20.708473    -0.901523    0.425951    10.956051    -0.619374    3.023415    1.190300    -0.846214    2.695560    -6.826531    -0.756688    2.381414    17.995928    -3.121504    -48.667217    44.875404    -35.082096    2.173924    -5.036667    -19.409491    18.927011    -4.441268    1.353387    3.245457    19.655148    -3.788999    48.227219    41.124489    27.934938    -3.342165    -9.513331    13.630828    -13.990200    -8.744600    -3.088248    10.240815    -13.056823    0.831406    -1.463427    6.694413    -0.198621    -10.700130    -5.373090    -9.568137    0.141349    -0.305931    -0.156767    -10.972004    -9.862683    0.169549    2.606108    3.020763    1.879867    7.920895    -4.148052    -9.682451    -1.174419    -0.712756    1.271468    
